<?xml version="1.0" encoding="UTF-8" standalone="no"?>
<!-- Created with Inkscape (http://www.inkscape.org/) -->

<svg
   width="210mm"
   height="297mm"
   viewBox="0 0 210 297"
   version="1.1"
   id="svg1"
   xml:space="preserve"
   inkscape:version="1.4.2 (ebf0e940, 2025-05-08)"
   sodipodi:docname="drawing.svg"
   inkscape:export-filename="drawing.pdf"
   inkscape:export-xdpi="96"
   inkscape:export-ydpi="96"
   xmlns:inkscape="http://www.inkscape.org/namespaces/inkscape"
   xmlns:sodipodi="http://sodipodi.sourceforge.net/DTD/sodipodi-0.dtd"
   xmlns="http://www.w3.org/2000/svg"
   xmlns:svg="http://www.w3.org/2000/svg"><sodipodi:namedview
     id="namedview1"
     pagecolor="#ffffff"
     bordercolor="#000000"
     borderopacity="0.25"
     inkscape:showpageshadow="2"
     inkscape:pageopacity="0.0"
     inkscape:pagecheckerboard="0"
     inkscape:deskcolor="#d1d1d1"
     inkscape:document-units="mm"
     inkscape:zoom="0.46324356"
     inkscape:cx="1367.5312"
     inkscape:cy="431.73833"
     inkscape:window-width="1104"
     inkscape:window-height="739"
     inkscape:window-x="117"
     inkscape:window-y="45"
     inkscape:window-maximized="0"
     inkscape:current-layer="layer-MC0"><inkscape:page
       x="0"
       y="0"
       width="210"
       height="297"
       id="page1"
       margin="0"
       bleed="0" /><inkscape:page
       x="220"
       y="0"
       width="285.62686"
       height="284.96756"
       id="page2"
       margin="0"
       bleed="0" /></sodipodi:namedview><defs
     id="defs1"><clipPath
       clipPathUnits="userSpaceOnUse"
       id="clipPath2"><path
         d="M 0,807.782 H 809.651 V 0 H 0 Z"
         transform="translate(-794.14472,-408.06461)"
         id="path2" /></clipPath><clipPath
       clipPathUnits="userSpaceOnUse"
       id="clipPath4"><path
         d="M 0,807.782 H 809.651 V 0 H 0 Z"
         transform="translate(-236.0905,-301.10371)"
         id="path4" /></clipPath><clipPath
       clipPathUnits="userSpaceOnUse"
       id="clipPath6"><path
         d="M 0,807.782 H 809.651 V 0 H 0 Z"
         transform="translate(-216.5446,-288.5607)"
         id="path6" /></clipPath><clipPath
       clipPathUnits="userSpaceOnUse"
       id="clipPath8"><path
         d="M 0,807.782 H 809.651 V 0 H 0 Z"
         transform="translate(-396.74431,-252.18081)"
         id="path8" /></clipPath><clipPath
       clipPathUnits="userSpaceOnUse"
       id="clipPath10"><path
         d="M 0,807.782 H 809.651 V 0 H 0 Z"
         transform="translate(-363.46011,-780.78142)"
         id="path10" /></clipPath><clipPath
       clipPathUnits="userSpaceOnUse"
       id="clipPath17"><path
         d="M 0,807.782 H 809.651 V 0 H 0 Z"
         transform="matrix(0.99986861,-0.01621105,-0.01621105,-0.99986861,-367.67075,709.76111)"
         id="path17" /></clipPath></defs><g
     inkscape:label="Layer 1"
     inkscape:groupmode="layer"
     id="layer1" /><g
     id="layer-MC0"
     inkscape:groupmode="layer"
     inkscape:label="Layer 1"
     transform="matrix(0.26458332,0,0,0.26458335,220.00001,0)"><path
       id="path1"
       d="m 0,0 c 0,-213.097 -172.749,-385.846 -385.846,-385.846 -213.097,0 -385.846,172.749 -385.846,385.846 0,213.097 172.749,385.846 385.846,385.846 C -172.749,385.846 0,213.097 0,0"
       style="fill:#ffffff;fill-opacity:1;fill-rule:nonzero;stroke:none"
       transform="matrix(1.3333333,0,0,-1.3333333,1058.8596,532.95653)"
       clip-path="url(#clipPath2)" /><path
       id="path3"
       d="m 0,0 c -3.726,-1.871 -7.843,-3.065 -11.104,-5.739 22.431,0.561 44.435,-5.169 65.521,-12.325 10.035,-3.913 19.793,-8.52 29.4,-13.386 5.125,-2.54 10.356,-4.91 15.258,-7.887 7.646,-4.75 15.837,-8.529 23.67,-12.94 4.349,-2.505 8.502,-5.383 13.074,-7.504 6.782,-4.813 13.68,-9.491 20.729,-13.912 6.97,-3.841 12.861,-9.286 19.758,-13.261 14.01,-10.009 27.904,-20.186 41.638,-30.577 5.89,-4.26 11.148,-9.349 17.191,-13.395 4.153,5.498 1.729,12.797 0.793,18.955 -0.384,5.704 -3.119,10.793 -5.49,15.865 -1.604,3.35 -3.521,6.532 -5.677,9.535 -10.578,15.044 -24.17,27.913 -39.552,37.957 -7.815,5.498 -15.792,10.792 -23.501,16.425 -0.276,-0.063 -0.837,-0.179 -1.113,-0.233 -6.818,4.171 -14.161,7.38 -21.283,10.971 -12.262,6.149 -25.203,10.739 -38.107,15.311 -6.194,1.711 -12.281,3.744 -18.421,5.597 C 70.53,2.246 58.16,4.661 45.656,5.989 30.301,7.62 14.134,6.72 0,0 m 272.37,69.104 c 4.847,-6.256 12.699,-8.573 19.838,-11.13 4.705,-0.58 9.411,-1.578 14.178,-1.266 5.134,0.231 9.973,2.094 14.794,3.716 1.497,0.499 2.728,1.551 3.931,2.54 -6.586,0.303 -13.154,0.847 -19.723,1.453 -9.143,1.363 -18.144,3.556 -26.914,6.496 -2.246,1.061 -4.242,-0.819 -6.104,-1.809 m 60.494,72.019 c 1.159,-6.676 3.913,-13.297 8.877,-18.047 1.987,-1.845 4.099,-4.109 7.022,-4.136 1.382,4.403 3.164,9.073 2.683,13.725 -5.517,4.126 -12.343,5.775 -18.582,8.458 m -57.447,41.833 c -1.835,-0.793 -3.708,-1.872 -4.403,-3.877 -2.307,-5.668 -2.085,-12.022 -0.668,-17.895 0.909,-1.391 1.97,-3.378 3.948,-3.066 3.45,-0.152 6.791,2.112 7.914,5.374 2.736,5.721 1.373,12.325 -0.508,18.073 -1.604,1.604 -4.18,2.781 -6.283,1.391 m -15.035,19.241 c -5.338,-4.554 -10.962,-9.064 -14.731,-15.079 3.253,0.784 6.069,2.664 9.171,3.867 4.518,1.961 9.312,3.182 14.143,4.109 5.445,0.597 11.033,1.452 15.97,3.966 1.542,0.624 1.801,2.513 1.328,3.921 -2.05,2.459 -4.43,5.053 -7.78,5.507 -6.649,1.159 -13.083,-2.218 -18.101,-6.291 M 86.25,259.528 C 77.962,252.692 72.642,242.71 70.253,232.337 67.125,218.408 72.767,203.658 82.65,193.73 c 4.563,-3.832 9.411,-7.406 14.812,-9.963 2.62,-1.248 5.632,-1.622 7.967,-3.458 -2.674,-6.141 -6.773,-11.506 -9.625,-17.566 -10.168,-20.622 -17.53,-44.257 -12.049,-67.286 2.389,-10.489 7.121,-20.354 13.244,-29.169 8.902,-11.791 20.996,-21.121 34.605,-26.834 2.317,-1.132 4.866,-2.21 6.158,-4.607 2.852,-4.653 6.425,-8.93 10.944,-12.049 14.419,-10.338 31.014,-16.925 47.127,-24.081 2.54,-0.981 4.991,-2.29 7.709,-2.736 0.749,1.666 0.704,3.511 0.285,5.249 -2.664,13.377 -10.775,24.607 -17.138,36.388 -5.686,9.946 -9.224,20.935 -14.304,31.165 0.303,-7.076 -0.873,-14.419 1.452,-21.255 2.345,-7.441 5.455,-14.642 9.564,-21.291 2.62,-4.99 6.425,-9.473 7.824,-15.025 -1.203,0.045 -2.469,-0.151 -3.582,0.383 -11.212,4.92 -22.031,10.828 -31.789,18.243 -6.524,5.472 -12.112,12.067 -16.435,19.392 -5.641,10.446 -7.236,22.396 -9.25,33.919 -0.401,9.679 -0.258,19.367 -0.089,29.045 -0.348,-0.018 -1.043,-0.045 -1.382,-0.053 -1.203,-7.228 -3.35,-14.25 -4.465,-21.496 -2.406,-10.258 -1.194,-20.916 0.918,-31.112 0.491,-2.941 1.961,-5.758 1.578,-8.797 -3.609,0.91 -6.541,3.352 -9.331,5.687 -4.901,4.634 -10.08,9.152 -13.6,14.98 -6.684,10.82 -11.505,23.11 -11.915,35.934 -1.239,5.917 0.428,11.835 0.757,17.762 2.701,15.881 8.93,31.013 17.04,44.889 2.54,4.216 5.517,8.253 7.174,12.941 -8.475,4.643 -17.752,8.048 -25.114,14.5 -7.2,5.365 -11.22,14.17 -11.701,23.019 -2.772,16.434 8.698,33.822 24.962,37.627 4.403,0.392 8.859,0.312 13.261,-0.098 10.419,-1.863 19.411,-7.985 27.574,-14.411 2.112,-1.675 3.422,-4.197 5.767,-5.606 -0.393,4.563 -2.389,8.868 -5.062,12.531 -7.139,8.787 -17.629,14.812 -28.831,16.469 -10.944,2.451 -22.414,-1.248 -31.46,-7.432 m 82.133,88.068 c 3.406,1.025 6.988,0.499 10.472,0.348 6.043,-0.41 12.192,0.258 18.137,-1.078 16.816,-2.451 33.669,-8.449 46.503,-19.919 4.607,-4.376 9.401,-8.805 12.289,-14.571 1.987,-4.046 3.511,-8.306 5.142,-12.503 1.586,-3.806 1.007,-7.959 1.301,-11.969 7.647,-0.972 14.973,-3.53 21.924,-6.791 6.684,-3.334 13.199,-7.29 18.225,-12.914 5.543,-5.543 10.596,-13.395 8.707,-21.558 -2.077,-0.615 -3.984,0.499 -5.855,1.212 -8.102,3.279 -16.995,4.768 -25.702,3.814 -1.702,-0.187 -3.227,-0.971 -4.688,-1.809 11.844,-4.821 19.821,-15.489 25.746,-26.371 2.754,-6.969 5.411,-14.188 5.722,-21.754 0.036,-2.353 2.175,-3.761 3.556,-5.4 3.805,-4.465 9.786,-5.731 14.91,-8.048 12.593,-5.276 25.248,-10.926 36.228,-19.161 4.375,-3.939 9.027,-7.923 11.612,-13.332 5.374,-10.802 4.661,-24.758 -2.897,-34.374 -2.076,-3.369 -5.694,-5.534 -7.637,-8.948 0.347,-5.302 0.811,-10.614 0.302,-15.925 0.134,-10.098 -3.457,-20.364 -10.756,-27.503 -3.556,-3.957 -8.44,-6.185 -13.11,-8.52 -0.115,-2.887 0.972,-5.65 1.052,-8.529 -0.063,-4.206 1.765,-8.262 0.98,-12.485 -0.9,-3.851 -0.963,-7.852 -2.147,-11.649 -2.077,-6.773 -5.33,-13.189 -9.599,-18.839 -1.542,-1.97 -3.609,-4.126 -6.372,-3.664 -5.624,5.169 -3.717,14.064 -7.655,20.097 -0.161,-9.517 -3.298,-18.92 -8.627,-26.789 -2.585,-3.182 -5.508,-6.64 -9.661,-7.656 -1.693,0.651 -3.69,1.462 -4.286,3.343 -1.739,5.115 -3.102,10.498 -6.56,14.785 -5.935,7.494 -13.511,14 -22.485,17.494 -5.578,1.292 -11.55,4.063 -17.253,1.933 -0.063,-1.425 1.363,-1.924 2.335,-2.646 5.578,-3.557 9.544,-9.011 13.172,-14.429 7.895,-12.076 13.287,-25.595 17.548,-39.329 2.592,-10.222 3.938,-20.854 2.896,-31.406 -0.561,-2.763 -1.159,-5.677 -3.253,-7.735 -3.226,1.764 -4.367,5.552 -6.319,8.43 -3.876,7.041 -9.278,13.271 -15.827,17.922 0.231,-1.132 0.427,-2.308 1.033,-3.342 5.222,-10.712 9.679,-22.164 10.195,-34.204 1.899,-9.59 0.518,-19.5 -2.022,-28.84 -2.38,-7.066 -4.403,-14.909 -10.089,-20.131 -1.212,-1.177 -2.433,0.552 -3.128,1.434 -3.066,4.911 -3.975,10.873 -7.236,15.686 -0.197,-9.349 0.231,-19.134 -3.904,-27.788 -0.909,-1.854 -2.3,-3.396 -3.699,-4.902 -4.936,3.431 -8.93,7.986 -13.84,11.444 -14.357,11.941 -29.544,22.805 -44.613,33.811 -28.991,20.623 -59.016,39.882 -90.511,56.476 -7.014,3.805 -14.447,6.728 -21.558,10.32 -15.142,6.31 -30.498,12.504 -46.726,15.373 -6.72,1.935 -13.76,1.987 -20.56,3.44 -3.28,0.446 -6.613,0.072 -9.893,0.571 -5.81,0.918 -11.683,-0.027 -17.503,0.311 -2.941,1.142 -0.695,4.35 0.366,6.106 7.022,10.195 8.796,22.752 11.318,34.587 0.169,6.55 1.693,13.003 1.533,19.571 -0.08,2.522 0.142,5.035 0.446,7.539 -2.237,-0.891 -2.148,-3.832 -3.298,-5.649 -4.474,-8.333 -7.415,-17.343 -11.496,-25.855 -2.817,2.032 -4.278,5.303 -5.972,8.217 -5.873,11.765 -8.947,24.909 -8.876,38.046 0.633,14.759 3.984,29.454 10.267,42.876 2.139,5.391 5.275,10.364 7.084,15.872 -5.391,-3.681 -9.134,-9.206 -13.421,-14.027 -4.313,-4.902 -7.094,-11.479 -13.119,-14.589 -1.996,3.11 -2.147,6.861 -2.709,10.409 -1.131,7.905 0.206,15.89 2.166,23.545 3.137,12.539 7.958,24.677 14.634,35.755 5.338,8.698 11.71,16.719 18.546,24.276 3.243,3.494 6.844,6.667 9.856,10.374 -5.525,-1.346 -11.371,-1.755 -16.897,-0.151 -4.42,1.23 -9.554,1.844 -12.664,5.588 -0.036,1.488 -0.009,2.976 0.036,4.456 2.263,1.898 5.017,3.012 7.619,4.331 12.192,6.684 21.042,17.806 28.483,29.276 4.082,6.47 7.13,13.52 11.319,19.918 5.445,9.117 12.824,16.871 20.631,23.991 13.591,11.844 30.034,21.122 48.107,23.599 6.096,1.667 12.441,0.892 18.653,1.498 -0.125,1.203 -0.24,2.406 -0.374,3.6 -4.848,1.203 -9.661,2.665 -14.224,4.697 -1.257,0.481 -1.568,1.978 -1.996,3.092 5.445,2.424 11.372,3.351 17.058,5.036 10.935,3.056 22.092,5.552 33.446,6.3 5.036,1.043 10.311,1.337 15.356,0.179 12.512,-1.676 24.713,-5.428 36.37,-10.241 -2.843,6.319 -10.035,9.688 -12.264,16.345"
       style="fill:#e1a262;fill-opacity:1;fill-rule:nonzero;stroke:none"
       transform="matrix(1.3333333,0,0,-1.3333333,314.78733,675.57107)"
       clip-path="url(#clipPath4)" /><path
       id="path5"
       d="m 0,0 c 15.86,7.54 34,8.55 51.23,6.72 14.03,-1.49 27.91,-4.199 41.66,-7.33 6.89,-2.079 13.72,-4.36 20.67,-6.28 14.48,-5.13 29,-10.28 42.76,-17.18 7.99,-4.03 16.23,-7.63 23.88,-12.31 -4.44,-5.47 -9.63,-10.26 -14.3,-15.52 -4.44,-5.12 -10.23,-9.1 -13.5,-15.18 -5.13,2.38 -9.79,5.61 -14.67,8.42 -8.79,4.95 -17.98,9.19 -26.56,14.52 -5.5,3.34 -11.37,6 -17.12,8.85 -10.78,5.46 -21.73,10.63 -32.99,15.02 C 37.4,-12.24 12.71,-5.81 -12.46,-6.439 -8.8,-3.439 -4.18,-2.1 0,0"
       style="fill:#487252;fill-opacity:1;fill-rule:nonzero;stroke:none"
       transform="matrix(1.3333333,0,0,-1.3333333,288.72613,692.29507)"
       clip-path="url(#clipPath6)" /><path
       id="path7"
       d="M 0,0 C 0.31,0.06 0.94,0.19 1.25,0.26 9.9,-6.06 18.851,-12 27.62,-18.17 44.88,-29.44 60.13,-43.88 72,-60.76 c 2.42,-3.37 4.57,-6.94 6.37,-10.7 2.66,-5.69 5.731,-11.4 6.16,-17.8 1.05,-6.91 3.77,-15.1 -0.889,-21.27 -6.781,4.54 -12.681,10.25 -19.29,15.03 -15.411,11.66 -31,23.08 -46.721,34.31 -7.739,4.46 -14.35,10.57 -22.17,14.88 -7.91,4.96 -15.65,10.21 -23.26,15.61 3.27,6.08 9.06,10.06 13.5,15.179 C -9.63,-10.26 -4.44,-5.47 0,0"
       style="fill:#c0453a;fill-opacity:1;fill-rule:nonzero;stroke:none"
       transform="matrix(1.3333333,0,0,-1.3333333,528.9924,740.8016)"
       clip-path="url(#clipPath8)" /><path
       id="path9"
       d="m 0,0 c -12.019,-0.246 -23.828,-2.645 -35.724,-4.207 -58.285,-11.601 -114.184,-36.573 -160.561,-73.896 -15.98,-12.56 -30.164,-27.125 -44.249,-41.715 -14.282,-15.869 -27.383,-32.833 -38.725,-50.941 -10.383,-16.423 -20.089,-33.387 -27.261,-51.495 -5.425,-12.215 -9.878,-24.837 -14.134,-37.495 -9.977,-29.241 -14.467,-60.02 -17.235,-90.639 -0.111,-18.501 -0.246,-37.015 0.123,-55.529 1.857,-11.047 2.288,-22.315 4.588,-33.288 10.334,-61.065 36.008,-119.339 73.269,-168.754 15.426,-19.978 32.427,-38.861 51.913,-54.988 36.634,-31.923 79.432,-56.871 125.501,-72.469 27.654,-9.288 56.243,-16.14 85.3,-18.834 21.466,-2.338 43.154,-1.821 64.718,-1.12 21.331,2.227 42.748,4.626 63.6,9.94 42.133,10.296 82.606,27.679 118.834,51.569 28.663,18.476 54.14,41.603 76.873,66.945 32.218,36.363 57.719,78.854 73.612,124.825 9.904,27.974 16.239,57.165 19.375,86.653 1.686,19.965 1.662,40.029 1.12,60.043 -3.69,58.052 -19.289,115.698 -48.013,166.454 -11.243,19.72 -24.283,38.394 -38.614,55.973 -10.666,11.883 -21.074,24.037 -32.945,34.752 -7.959,6.79 -15.573,13.974 -23.951,20.273 -18.182,13.815 -37.126,26.793 -57.645,36.942 -40.104,20.396 -83.664,34.924 -128.552,39.291 0.492,0.369 0.984,0.751 1.501,1.132 -4.294,0 -8.574,0.135 -12.844,0.516 C 64.018,2.411 47.915,1.87 31.923,2.116 21.257,1.993 10.542,1.734 0,0 m 22.291,26.694 c 15.204,0.284 30.532,0.911 45.626,-1.267 6.705,-0.123 13.434,-0.159 20.027,-1.587 25.354,-1.919 50.364,-7.172 74.597,-14.884 54.977,-17.333 106.828,-45.406 150.203,-83.504 15.537,-15.598 32.378,-30.163 45.332,-48.112 16.078,-19.498 29.758,-40.902 41.37,-63.341 16.78,-30.938 28.835,-64.362 36.622,-98.659 5.032,-20.396 7.283,-41.358 9.128,-62.221 1.66,-14.615 0.787,-29.451 0.578,-44.139 -1.402,-7.75 -1.107,-15.635 -1.525,-23.471 -1.488,-7.381 -1.119,-15.021 -2.891,-22.353 -10.973,-81.572 -49.736,-158.494 -106.212,-218.058 -33.916,-35.86 -74.671,-65.076 -119.167,-86.382 -22.511,-10.53 -45.601,-20.249 -69.873,-25.907 -19.854,-5.278 -40.213,-8.181 -60.499,-11.109 -7.578,-1.402 -15.402,0.086 -22.93,-1.846 -11.047,-0.86 -22.168,-0.639 -33.239,-0.516 -7.43,0.061 -14.701,1.969 -22.143,1.648 -52.011,4.712 -103.383,18.711 -150.043,42.392 -62.234,32.378 -116.546,80.293 -154.902,139.156 -36.807,56.366 -59.442,122.045 -64.227,189.199 -2.473,15.463 -1.23,31.148 -1.526,46.734 3.1,62.898 19.486,125.489 49.748,180.908 8.169,13.802 15.906,27.925 25.526,40.805 26.756,38.221 60.475,71.485 98.88,97.97 19.917,14.171 41.765,25.378 64.055,35.293 36.733,15.783 75.754,26.264 115.464,30.742 10.591,1.673 21.404,0.947 32.021,2.509"
       style="fill:#23384f;fill-opacity:1;fill-rule:nonzero;stroke:none"
       transform="matrix(1.3333333,0,0,-1.3333333,484.61347,36.0008)"
       clip-path="url(#clipPath10)" /><text
       id="text10"
       xml:space="preserve"
       transform="matrix(0.47841535,-0.8682515,0.89640865,0.46338782,0,0)"
       x="-220.88274"
       y="355.82367"
       style="font-size:15.7467px;stroke-width:1.31223"><tspan
         id="tspan10"
         style="font-variant:normal;font-weight:500;font-stretch:normal;font-size:113.932px;font-family:'Avenir Next';writing-mode:lr-tb;fill:#23384f;fill-opacity:1;fill-rule:nonzero;stroke:none;stroke-width:1.31223"
         x="-220.88274"
         y="355.82367">T</tspan></text><text
       id="text11"
       xml:space="preserve"
       transform="matrix(0.59689799,-0.79645019,0.82227885,0.57814879,0,0)"
       x="-124.44924"
       y="401.28207"
       style="font-size:15.7467px;stroke-width:1.31223"><tspan
         id="tspan11"
         style="font-variant:normal;font-weight:500;font-stretch:normal;font-size:113.927px;font-family:'Avenir Next';writing-mode:lr-tb;fill:#23384f;fill-opacity:1;fill-rule:nonzero;stroke:none;stroke-width:1.31223"
         x="-124.44924"
         y="401.28207">E</tspan></text><text
       id="text12"
       xml:space="preserve"
       transform="matrix(0.73462382,-0.6799174,0.70196692,0.7115485,0,0)"
       x="2.9995582"
       y="379.48462"
       style="font-size:15.7467px;stroke-width:1.31223"><tspan
         id="tspan12"
         style="font-variant:normal;font-weight:500;font-stretch:normal;font-size:113.932px;font-family:'Avenir Next';writing-mode:lr-tb;fill:#23384f;fill-opacity:1;fill-rule:nonzero;stroke:none;stroke-width:1.31223"
         x="2.9995582"
         y="379.48462">X</tspan></text><text
       id="text13"
       xml:space="preserve"
       transform="matrix(0.81880305,-0.58275843,0.60165712,0.79308357,0,0)"
       x="120.16447"
       y="368.15347"
       style="font-size:15.7467px;stroke-width:1.31223"><tspan
         id="tspan13"
         style="font-variant:normal;font-weight:500;font-stretch:normal;font-size:113.932px;font-family:'Avenir Next';writing-mode:lr-tb;fill:#23384f;fill-opacity:1;fill-rule:nonzero;stroke:none;stroke-width:1.31223"
         x="120.16447"
         y="368.15347"> </tspan></text><text
       id="text14"
       xml:space="preserve"
       transform="matrix(0.89285114,-0.46978716,0.48502223,0.86480573,0,0)"
       x="189.66029"
       y="343.30356"
       style="font-size:15.7467px;stroke-width:1.31223"><tspan
         id="tspan14"
         style="font-variant:normal;font-weight:500;font-stretch:normal;font-size:113.932px;font-family:'Avenir Next';writing-mode:lr-tb;fill:#23384f;fill-opacity:1;fill-rule:nonzero;stroke:none;stroke-width:1.31223"
         x="189.66029"
         y="343.30356">U</tspan></text><text
       id="text15"
       xml:space="preserve"
       transform="matrix(0.96406415,-0.31087031,0.32095175,0.93378187,0,0)"
       x="314.90695"
       y="292.26834"
       style="font-size:15.7467px;stroke-width:1.31223"><tspan
         id="tspan15"
         style="font-variant:normal;font-weight:500;font-stretch:normal;font-size:113.932px;font-family:'Avenir Next';writing-mode:lr-tb;fill:#23384f;fill-opacity:1;fill-rule:nonzero;stroke:none;stroke-width:1.31223"
         x="314.90695"
         y="292.26834">S</tspan></text><text
       id="text16"
       xml:space="preserve"
       transform="matrix(1.0030475,-0.1571547,0.16225118,0.9715407,0,0)"
       x="410.6796"
       y="228.35751"
       style="font-size:15.7467px;stroke-width:1.31223"><tspan
         id="tspan16"
         style="font-variant:normal;font-weight:500;font-stretch:normal;font-size:113.932px;font-family:'Avenir Next';writing-mode:lr-tb;fill:#23384f;fill-opacity:1;fill-rule:nonzero;stroke:none;stroke-width:1.31223"
         x="410.6796"
         y="228.35751">E</tspan></text><text
       id="text17"
       xml:space="preserve"
       transform="matrix(1.3331581,0.02093579,-0.02161473,1.2912822,505.50453,146.97735)"
       clip-path="url(#clipPath17)"><tspan
         id="tspan17"
         style="font-variant:normal;font-weight:500;font-stretch:normal;font-size:86.8235px;font-family:'Avenir Next';writing-mode:lr-tb;fill:#23384f;fill-opacity:1;fill-rule:nonzero;stroke:none"
         x="0"
         y="0">R</tspan></text><text
       id="text18"
       xml:space="preserve"
       transform="matrix(1.0022063,0.16211146,-0.16736869,0.97072592,0,0)"
       x="574.21289"
       y="55.503937"
       style="font-size:15.7467px;stroke-width:1.31223"><tspan
         id="tspan18"
         style="font-variant:normal;font-weight:500;font-stretch:normal;font-size:113.932px;font-family:'Avenir Next';writing-mode:lr-tb;fill:#23384f;fill-opacity:1;fill-rule:nonzero;stroke:none;stroke-width:1.31223"
         x="574.21289"
         y="55.503937">S</tspan></text><text
       id="text19"
       xml:space="preserve"
       transform="matrix(0.97615347,0.27319382,-0.28205341,0.94549145,0,0)"
       x="634.56171"
       y="-17.275139"
       style="font-size:15.7467px;stroke-width:1.31223"><tspan
         id="tspan19"
         style="font-variant:normal;font-weight:500;font-stretch:normal;font-size:113.932px;font-family:'Avenir Next';writing-mode:lr-tb;fill:#23384f;fill-opacity:1;fill-rule:nonzero;stroke:none;stroke-width:1.31223"
         x="634.56171"
         y="-17.275139"> </tspan></text><text
       id="text20"
       xml:space="preserve"
       transform="matrix(0.92433007,0.40869821,-0.42195218,0.89529588,0,0)"
       x="645.37598"
       y="-115.80267"
       style="font-size:15.7467px;stroke-width:1.31223"><tspan
         id="tspan20"
         style="font-variant:normal;font-weight:500;font-stretch:normal;font-size:113.932px;font-family:'Avenir Next';writing-mode:lr-tb;fill:#23384f;fill-opacity:1;fill-rule:nonzero;stroke:none;stroke-width:1.31223"
         x="645.37598"
         y="-115.80267">G</tspan></text><text
       id="text21"
       xml:space="preserve"
       transform="matrix(0.82601037,0.57313674,-0.5917234,0.80006451,0,0)"
       x="686.22375"
       y="-252.64"
       style="font-size:15.7467px;stroke-width:1.31223"><tspan
         id="tspan21"
         style="font-variant:normal;font-weight:500;font-stretch:normal;font-size:113.932px;font-family:'Avenir Next';writing-mode:lr-tb;fill:#23384f;fill-opacity:1;fill-rule:nonzero;stroke:none;stroke-width:1.31223"
         x="686.22375"
         y="-252.64">R</tspan></text><text
       id="text22"
       xml:space="preserve"
       transform="matrix(0.69115159,0.72141295,-0.74480816,0.66944178,0,0)"
       x="677.57318"
       y="-398.65579"
       style="font-size:15.7467px;stroke-width:1.31223"><tspan
         id="tspan22"
         style="font-variant:normal;font-weight:500;font-stretch:normal;font-size:113.932px;font-family:'Avenir Next';writing-mode:lr-tb;fill:#23384f;fill-opacity:1;fill-rule:nonzero;stroke:none;stroke-width:1.31223"
         x="677.57318"
         y="-398.65579">O</tspan></text><text
       id="text23"
       xml:space="preserve"
       transform="matrix(0.51355413,0.84921107,-0.87675075,0.49742285,0,0)"
       x="657.27301"
       y="-554.6012"
       style="font-size:15.7467px;stroke-width:1.31223"><tspan
         id="tspan23"
         style="font-variant:normal;font-weight:500;font-stretch:normal;font-size:113.932px;font-family:'Avenir Next';writing-mode:lr-tb;fill:#23384f;fill-opacity:1;fill-rule:nonzero;stroke:none;stroke-width:1.31223"
         x="657.27301"
         y="-554.6012">U</tspan></text><text
       id="text24"
       xml:space="preserve"
       transform="matrix(0.34521857,0.92562539,-0.95564316,0.33437489,0,0)"
       x="614.11566"
       y="-678.24677"
       style="font-size:15.7467px;stroke-width:1.31223"><tspan
         id="tspan24"
         style="font-variant:normal;font-weight:500;font-stretch:normal;font-size:113.932px;font-family:'Avenir Next';writing-mode:lr-tb;fill:#23384f;fill-opacity:1;fill-rule:nonzero;stroke:none;stroke-width:1.31223"
         x="614.11566"
         y="-678.24677">P</tspan></text><text
       id="text25"
       xml:space="preserve"
       transform="matrix(1.1790167,0.62265354,-0.62265354,1.1790167,266.3412,926.0388)"><tspan
         id="tspan25"
         style="font-variant:normal;font-weight:500;font-stretch:normal;font-size:86.82px;font-family:'Avenir Next';writing-mode:lr-tb;fill:#23384f;fill-opacity:1;fill-rule:nonzero;stroke:none"
         x="0"
         y="0">P</tspan></text><text
       id="text26"
       xml:space="preserve"
       transform="matrix(1.2654754,0.41994026,-0.41994026,1.2654754,328.93293,960.2504)"><tspan
         id="tspan26"
         style="font-variant:normal;font-weight:500;font-stretch:normal;font-size:86.82px;font-family:'Avenir Next';writing-mode:lr-tb;fill:#23384f;fill-opacity:1;fill-rule:nonzero;stroke:none"
         x="0"
         y="0">O</tspan></text><text
       id="text27"
       xml:space="preserve"
       transform="matrix(1.3181146,0.20087699,-0.20087699,1.3181146,425.54813,990.81747)"><tspan
         id="tspan27"
         style="font-variant:normal;font-weight:500;font-stretch:normal;font-size:86.82px;font-family:'Avenir Next';writing-mode:lr-tb;fill:#23384f;fill-opacity:1;fill-rule:nonzero;stroke:none"
         x="0"
         y="0">R</tspan></text><text
       id="text28"
       xml:space="preserve"
       transform="matrix(1.3331581,0.02161714,-0.02161714,1.3331581,498.30147,1001.5388)"><tspan
         id="tspan28"
         style="font-variant:normal;font-weight:500;font-stretch:normal;font-size:86.82px;font-family:'Avenir Next';writing-mode:lr-tb;fill:#23384f;fill-opacity:1;fill-rule:nonzero;stroke:none"
         x="0"
         y="0">T</tspan></text><text
       id="text29"
       xml:space="preserve"
       transform="matrix(1.3222385,-0.17164854,0.17164854,1.3222385,566.5768,1003.0856)"><tspan
         id="tspan29"
         style="font-variant:normal;font-weight:500;font-stretch:normal;font-size:86.82px;font-family:'Avenir Next';writing-mode:lr-tb;fill:#23384f;fill-opacity:1;fill-rule:nonzero;stroke:none"
         x="0"
         y="0">U</tspan></text><text
       id="text30"
       xml:space="preserve"
       transform="matrix(1.2735916,-0.39464187,0.39464187,1.2735916,651.13613,992.20347)"><tspan
         id="tspan30"
         style="font-variant:normal;font-weight:500;font-stretch:normal;font-size:86.82px;font-family:'Avenir Next';writing-mode:lr-tb;fill:#23384f;fill-opacity:1;fill-rule:nonzero;stroke:none"
         x="0"
         y="0">G</tspan></text><text
       id="text31"
       xml:space="preserve"
       transform="matrix(1.1878173,-0.60569624,0.60569624,1.1878173,739.474,964.24453)"><tspan
         id="tspan31"
         style="font-variant:normal;font-weight:500;font-stretch:normal;font-size:86.82px;font-family:'Avenir Next';writing-mode:lr-tb;fill:#23384f;fill-opacity:1;fill-rule:nonzero;stroke:none"
         x="0"
         y="0">A</tspan></text><text
       id="text32"
       xml:space="preserve"
       transform="matrix(1.0921422,-0.76485495,0.76485495,1.0921422,814.0768,925.13973)"><tspan
         id="tspan32"
         style="font-variant:normal;font-weight:500;font-stretch:normal;font-size:86.8199px;font-family:'Avenir Next';writing-mode:lr-tb;fill:#23384f;fill-opacity:1;fill-rule:nonzero;stroke:none"
         x="0"
         y="0">L</tspan></text></g></svg>
