<?xml version="1.0" encoding="utf-8"?>
<!-- Generator: Adobe Illustrator 25.2.0, SVG Export Plug-In . SVG Version: 6.00 Build 0)  -->
<svg version="1.1" id="Layer_1" xmlns="http://www.w3.org/2000/svg" xmlns:xlink="http://www.w3.org/1999/xlink" x="0px" y="0px"
	 viewBox="0 0 892.1 892.1" style="enable-background:new 0 0 892.1 892.1;" xml:space="preserve">
<style type="text/css">
	.st0{fill:url(#SVGID_1_);}
	.st1{fill:#FFFFFF;}
	.st2{fill:#23384F;}
	.st3{fill:#487252;}
	.st4{fill:#C0453A;}
	.st5{fill:none;}
</style>
<linearGradient id="SVGID_1_" gradientUnits="userSpaceOnUse" x1="147.9156" y1="884.6132" x2="154.8854" y2="877.6435" gradientTransform="matrix(128 0 0 -128 -18933.2012 113230.4922)">
	<stop  offset="0" style="stop-color:#F28C28"/>
	<stop  offset="1" style="stop-color:#FFB366"/>
</linearGradient>
<path class="st0" d="M125.5,0h641.2C836,0,892.1,56.2,892.1,125.5v641.2c0,69.3-56.2,125.5-125.5,125.5H125.5
	C56.2,892.1,0,836,0,766.7V125.5C0,56.2,56.2,0,125.5,0z"/>
<circle class="st1" cx="438.9" cy="443.8" r="329.1"/>
<path class="st2" d="M435.6,238.6c2.9-0.9,6-0.4,8.9-0.3c5.2,0.3,10.4-0.2,15.5,0.9c14.3,2.1,28.7,7.2,39.7,17
	c3.9,3.7,8,7.5,10.5,12.4c1.7,3.5,3,7.1,4.4,10.7c1.4,3.2,0.9,6.8,1.1,10.2c6.5,0.8,12.8,3,18.7,5.8c5.7,2.8,11.3,6.2,15.5,11
	c4.7,4.7,9,11.4,7.4,18.4c-1.8,0.5-3.4-0.4-5-1c-6.9-2.8-14.5-4.1-21.9-3.3c-1.5,0.2-2.8,0.8-4,1.5c10.1,4.1,16.9,13.2,22,22.5
	c2.3,5.9,4.6,12.1,4.9,18.6c0,2,1.9,3.2,3,4.6c3.2,3.8,8.3,4.9,12.7,6.9c10.7,4.5,21.5,9.3,30.9,16.3c3.7,3.4,7.7,6.8,9.9,11.4
	c4.6,9.2,4,21.1-2.5,29.3c-1.8,2.9-4.9,4.7-6.5,7.6c0.3,4.5,0.7,9.1,0.3,13.6c0.1,8.6-2.9,17.4-9.2,23.5c-3,3.4-7.2,5.3-11.2,7.3
	c-0.1,2.5,0.8,4.8,0.9,7.3c-0.1,3.6,1.5,7,0.8,10.7c-0.8,3.3-0.8,6.7-1.8,9.9c-1.8,5.8-4.5,11.3-8.2,16.1c-1.3,1.7-3.1,3.5-5.4,3.1
	c-4.8-4.4-3.2-12-6.5-17.1c-0.1,8.1-2.8,16.1-7.4,22.9c-2.2,2.7-4.7,5.7-8.2,6.5c-1.4-0.6-3.1-1.2-3.7-2.9c-1.5-4.4-2.6-9-5.6-12.6
	c-5.1-6.4-11.5-11.9-19.2-14.9c-4.8-1.1-9.9-3.5-14.7-1.6c-0.1,1.2,1.2,1.6,2,2.3c4.8,3,8.1,7.7,11.2,12.3
	c6.7,10.3,11.3,21.8,15,33.5c2.2,8.7,3.4,17.8,2.5,26.8c-0.5,2.4-1,4.8-2.8,6.6c-2.8-1.5-3.7-4.7-5.4-7.2c-3.3-6-7.9-11.3-13.5-15.3
	c0.2,1,0.4,2,0.9,2.9c4.5,9.1,8.3,18.9,8.7,29.2c1.6,8.2,0.4,16.6-1.7,24.6c-2,6-3.8,12.7-8.6,17.2c-1,1-2.1-0.5-2.7-1.2
	c-2.6-4.2-3.4-9.3-6.2-13.4c-0.2,8,0.2,16.3-3.3,23.7c-0.8,1.6-2,2.9-3.2,4.2c-4.2-2.9-7.6-6.8-11.8-9.8
	c-12.2-10.2-25.2-19.5-38.1-28.8c-24.7-17.6-50.3-34-77.2-48.2c-6-3.2-12.3-5.7-18.4-8.8c-12.9-5.4-26-10.7-39.9-13.1
	c-5.7-1.6-11.7-1.7-17.5-2.9c-2.8-0.4-5.6-0.1-8.4-0.5c-5-0.8-10,0-14.9-0.3c-2.5-1-0.6-3.7,0.3-5.2c6-8.7,7.5-19.4,9.7-29.5
	c0.1-5.6,1.4-11.1,1.3-16.7c-0.1-2.2,0.1-4.3,0.4-6.4c-1.9,0.8-1.8,3.3-2.8,4.8c-3.8,7.1-6.3,14.8-9.8,22.1c-2.4-1.7-3.6-4.5-5.1-7
	c-5-10-7.6-21.2-7.6-32.5c0.5-12.6,3.4-25.1,8.8-36.6c1.8-4.6,4.5-8.8,6-13.5c-4.6,3.1-7.8,7.9-11.4,12c-3.7,4.2-6.1,9.8-11.2,12.4
	c-1.7-2.7-1.8-5.9-2.3-8.9c-1-6.7,0.2-13.6,1.8-20.1c2.7-10.7,6.8-21.1,12.5-30.5c4.6-7.4,10-14.3,15.8-20.7c2.8-3,5.8-5.7,8.4-8.8
	c-4.7,1.1-9.7,1.5-14.4,0.1c-3.8-1-8.1-1.6-10.8-4.8c0-1.3,0-2.5,0-3.8c1.9-1.6,4.3-2.6,6.5-3.7c10.4-5.7,17.9-15.2,24.3-25
	c3.5-5.5,6.1-11.5,9.7-17c4.6-7.8,10.9-14.4,17.6-20.5c11.6-10.1,25.6-18,41-20.1c5.2-1.4,10.6-0.8,15.9-1.3c-0.1-1-0.2-2.1-0.3-3.1
	c-4.1-1-8.2-2.3-12.1-4c-1.1-0.4-1.3-1.7-1.7-2.6c4.6-2.1,9.7-2.9,14.6-4.3c9.3-2.6,18.8-4.7,28.5-5.4c4.3-0.9,8.8-1.1,13.1-0.2
	c10.7,1.4,21.1,4.6,31,8.7C443.6,247.1,437.5,244.3,435.6,238.6z M365.5,313.7c-7.1,5.8-11.6,14.3-13.6,23.2
	c-2.7,11.9,2.1,24.5,10.6,32.9c3.9,3.3,8,6.3,12.6,8.5c2.2,1.1,4.8,1.4,6.8,2.9c-2.3,5.2-5.8,9.8-8.2,15
	c-8.7,17.6-15,37.8-10.3,57.4c2,8.9,6.1,17.4,11.3,24.9c7.6,10.1,17.9,18,29.5,22.9c2,1,4.2,1.9,5.3,3.9c2.4,4,5.5,7.6,9.3,10.3
	c12.3,8.8,26.5,14.4,40.2,20.5c2.2,0.8,4.3,2,6.6,2.3c0.6-1.4,0.6-3,0.2-4.5c-2.3-11.4-9.2-21-14.6-31c-4.9-8.5-7.9-17.9-12.2-26.6
	c0.3,6-0.7,12.3,1.2,18.1c2,6.3,4.7,12.5,8.2,18.2c2.2,4.3,5.5,8.1,6.7,12.8c-1,0-2.1,0.1-3.1-0.3c-9.6-4.2-18.8-9.2-27.1-15.6
	c-5.6-4.7-10.3-10.3-14-16.5c-4.8-8.9-6.2-19.1-7.9-28.9c-0.3-8.3-0.2-16.5-0.1-24.8c-0.3,0-0.9,0-1.2,0c-1,6.2-2.9,12.2-3.8,18.3
	c-2.1,8.8-1,17.8,0.8,26.5c0.4,2.5,1.7,4.9,1.3,7.5c-3.1-0.8-5.6-2.9-8-4.9c-4.2-4-8.6-7.8-11.6-12.8c-5.7-9.2-9.8-19.7-10.2-30.7
	c-1.1-5,0.4-10.1,0.6-15.2c2.3-13.5,7.6-26.5,14.5-38.3c2.2-3.6,4.7-7,6.1-11c-7.2-4-15.1-6.9-21.4-12.4c-6.1-4.6-9.6-12.1-10-19.6
	c-2.4-14,7.4-28.9,21.3-32.1c3.8-0.3,7.6-0.3,11.3,0.1c8.9,1.6,16.6,6.8,23.5,12.3c1.8,1.4,2.9,3.6,4.9,4.8c-0.3-3.9-2-7.6-4.3-10.7
	c-6.1-7.5-15-12.6-24.6-14C383,305.3,373.2,308.4,365.5,313.7z M514.1,362.6c-4.6,3.9-9.4,7.7-12.6,12.9c2.8-0.7,5.2-2.3,7.8-3.3
	c3.9-1.7,7.9-2.7,12.1-3.5c4.6-0.5,9.4-1.2,13.6-3.4c1.3-0.5,1.5-2.1,1.1-3.3c-1.7-2.1-3.8-4.3-6.6-4.7
	C523.8,356.3,518.4,359.1,514.1,362.6z M526.9,379c-1.6,0.7-3.2,1.6-3.8,3.3c-2,4.8-1.8,10.3-0.6,15.3c0.8,1.2,1.7,2.9,3.4,2.6
	c2.9,0.1,5.8-1.8,6.8-4.6c2.3-4.9,1.2-10.5-0.4-15.4C530.9,378.8,528.7,377.8,526.9,379z M575.9,414.7c1,5.7,3.3,11.3,7.6,15.4
	c1.7,1.6,3.5,3.5,6,3.5c1.2-3.8,2.7-7.7,2.3-11.7C587,418.4,581.2,417,575.9,414.7z M524.3,476.1c4.1,5.3,10.8,7.3,16.9,9.5
	c4,0.5,8,1.3,12.1,1.1c4.4-0.2,8.5-1.8,12.6-3.2c1.3-0.4,2.3-1.3,3.4-2.2c-5.6-0.3-11.2-0.7-16.8-1.2c-7.8-1.2-15.5-3-23-5.5
	C527.6,473.7,525.9,475.3,524.3,476.1z M291.9,535.1c-3.2,1.6-6.7,2.6-9.5,4.9c19.1-0.5,37.9,4.4,55.9,10.5
	c8.6,3.3,16.9,7.3,25.1,11.4c4.4,2.2,8.8,4.2,13,6.7c6.5,4.1,13.5,7.3,20.2,11c3.7,2.1,7.3,4.6,11.2,6.4c5.8,4.1,11.7,8.1,17.7,11.9
	c5.9,3.3,11,7.9,16.9,11.3c12,8.5,23.8,17.2,35.5,26.1c5,3.6,9.5,8,14.7,11.4c3.5-4.7,1.5-10.9,0.7-16.2c-0.3-4.9-2.7-9.2-4.7-13.5
	c-1.4-2.9-3-5.6-4.8-8.1c-9-12.8-20.6-23.8-33.7-32.4c-6.7-4.7-13.5-9.2-20-14c-0.2,0.1-0.7,0.2-1,0.2c-5.8-3.6-12.1-6.3-18.2-9.4
	c-10.5-5.2-21.5-9.2-32.5-13.1c-5.3-1.5-10.5-3.2-15.7-4.8c-10.5-2.4-21-4.4-31.7-5.6C317.8,528.6,304,529.4,291.9,535.1z"/>
<g>
	<path class="st3" d="M275.3,545.8c13.5-6.4,29-7.3,43.7-5.7c12,1.3,23.8,3.6,35.5,6.3c5.9,1.8,11.7,3.7,17.6,5.4
		c12.4,4.4,24.7,8.8,36.5,14.7c6.8,3.4,13.8,6.5,20.4,10.5c-3.8,4.7-8.2,8.8-12.2,13.2c-3.8,4.4-8.7,7.8-11.5,12.9
		c-4.4-2-8.4-4.8-12.5-7.2c-7.5-4.2-15.3-7.8-22.7-12.4c-4.7-2.8-9.7-5.1-14.6-7.5c-9.2-4.7-18.5-9.1-28.1-12.8
		c-20.2-6.9-41.2-12.3-62.7-11.8C267.8,548.7,271.7,547.6,275.3,545.8z"/>
</g>
<g>
	<path class="st4" d="M429,576.8c0.3-0.1,0.8-0.2,1.1-0.2c7.4,5.4,15,10.5,22.5,15.7c14.7,9.6,27.7,21.9,37.9,36.3
		c2.1,2.9,3.9,5.9,5.4,9.1c2.3,4.9,4.9,9.7,5.3,15.2c0.9,5.9,3.2,12.9-0.8,18.1c-5.8-3.9-10.8-8.7-16.5-12.8
		c-13.1-9.9-26.4-19.7-39.9-29.3c-6.6-3.8-12.2-9-18.9-12.7c-6.7-4.2-13.4-8.7-19.8-13.3c2.8-5.2,7.7-8.6,11.5-12.9
		C420.8,585.6,425.2,581.5,429,576.8z"/>
</g>
<path class="st2" d="M419.6,103.1c13-0.2,26-0.8,38.9,1.1c5.7,0.1,11.5,0.1,17.1,1.4c21.6,1.6,43,6.1,63.6,12.7
	c46.9,14.8,91.1,38.7,128.1,71.2c13.3,13.3,27.6,25.7,38.7,41c13.7,16.6,25.4,34.9,35.3,54c14.3,26.4,24.6,54.9,31.2,84.2
	c4.3,17.4,6.2,35.3,7.8,53.1c1.4,12.5,0.7,25.1,0.5,37.7c-1.2,6.6-0.9,13.3-1.3,20c-1.3,6.3-1,12.8-2.5,19.1
	c-9.4,69.6-42.4,135.2-90.6,186c-28.9,30.6-63.7,55.5-101.7,73.7c-19.2,9-38.9,17.3-59.6,22.1c-16.9,4.5-34.3,7-51.6,9.5
	c-6.5,1.2-13.1-0.1-19.6,1.6c-9.4,0.7-18.9,0.5-28.4,0.4c-6.3-0.1-12.5-1.7-18.9-1.4c-44.4-4-88.2-16-128-36.2
	c-53.1-27.6-99.4-68.5-132.1-118.7C115.3,587.5,96,531.5,91.9,474.2c-2.1-13.2-1-26.6-1.3-39.9c2.6-53.7,16.6-107,42.4-154.3
	c7-11.8,13.6-23.8,21.8-34.8c22.8-32.6,51.6-61,84.4-83.6c17-12.1,35.6-21.6,54.6-30.1c31.3-13.5,64.6-22.4,98.5-26.2
	C401.3,103.8,410.6,104.5,419.6,103.1z M400.6,125.9c-10.3,0.2-20.3,2.3-30.5,3.6c-49.7,9.9-97.4,31.2-137,63
	c-13.6,10.7-25.7,23.1-37.7,35.6c-12.2,13.5-23.4,28-33,43.5c-8.9,14-17.1,28.5-23.3,43.9c-4.6,10.4-8.4,21.2-12.1,32
	c-8.5,24.9-12.3,51.2-14.7,77.3c-0.1,15.8-0.2,31.6,0.1,47.4c1.6,9.4,2,19,3.9,28.4c8.8,52.1,30.7,101.8,62.5,144
	c13.2,17,27.7,33.2,44.3,46.9c31.3,27.2,67.8,48.5,107.1,61.8c23.6,7.9,48,13.8,72.8,16.1c18.3,2,36.8,1.6,55.2,1
	c18.2-1.9,36.5-3.9,54.3-8.5c35.9-8.8,70.5-23.6,101.4-44c24.5-15.8,46.2-35.5,65.6-57.1c27.5-31,49.2-67.3,62.8-106.5
	c8.4-23.9,13.9-48.8,16.5-73.9c1.4-17,1.4-34.1,1-51.2c-3.1-49.5-16.5-98.7-41-142c-9.6-16.8-20.7-32.8-32.9-47.7
	c-9.1-10.1-18-20.5-28.1-29.6c-6.8-5.8-13.3-11.9-20.4-17.3c-15.5-11.8-31.7-22.9-49.2-31.5c-34.2-17.4-71.4-29.8-109.7-33.5
	c0.4-0.3,0.8-0.6,1.3-1c-3.7,0-7.3-0.1-11-0.4c-13.5-2.1-27.3-1.6-40.9-1.9C418.7,124.2,409.6,124.4,400.6,125.9z"/>
<path id="SVGID_x5F_2_x5F_" class="st5" d="M687.9,417.6c0,139.1-112.7,251.8-251.8,251.8S184.3,556.7,184.3,417.6
	S297,165.8,436.1,165.8S687.9,278.5,687.9,417.6z"/>
<text><textPath  xlink:href="#SVGID_x5F_2_x5F_" startOffset="10075.127%">
<tspan  class="st2" style="font-family:'AvenirNext-Medium'; font-size:74.0652px; letter-spacing:-100;">T</tspan><tspan  class="st2" style="font-family:'AvenirNext-Medium'; font-size:74.0622px; letter-spacing:-18;">E</tspan><tspan  class="st2" style="font-family:'AvenirNext-Medium'; font-size:74.0652px; letter-spacing:-18;">X USERS GROUP</tspan></textPath>
</text>
<path id="SVGID_x5F_3_x5F_" class="st5" d="M743,410.7c0-169.6-137.5-307.1-307.1-307.1S128.8,241.1,128.8,410.7
	s137.5,307.1,307.1,307.1S743,580.3,743,410.7z"/>
<text><textPath  xlink:href="#SVGID_x5F_3_x5F_" startOffset="2754.9561%">
<tspan  class="st2" style="font-family:'AvenirNext-Medium'; font-size:74.0622px; letter-spacing:-18;">PORTUGAL</tspan></textPath>
</text>
</svg>
