<?xml version="1.0" encoding="utf-8"?>
<!-- Generator: Adobe Illustrator 25.2.0, SVG Export Plug-In . SVG Version: 6.00 Build 0)  -->
<svg version="1.1" id="Layer_1" xmlns="http://www.w3.org/2000/svg" xmlns:xlink="http://www.w3.org/1999/xlink" x="0px" y="0px"
	 viewBox="0 0 809.65 807.78" style="enable-background:new 0 0 809.65 807.78;" xml:space="preserve">
<style type="text/css">
	.st0{display:none;fill:#FFFFFF;}
	.st1{fill:#FFFFFF;}
	.st2{fill:#23384F;}
	.st3{fill:#487252;}
	.st4{fill:#C0453A;}
	.st5{fill:none;}
</style>
<g>
	<g>
		<path class="st0" d="M370.28,103.01c8.57-1.41,17.28-1.62,25.95-1.72c13,0.2,26.09-0.24,38.98,1.77
			c3.47,0.31,6.95,0.42,10.44,0.42c-0.42,0.31-0.82,0.62-1.22,0.92c36.49,3.55,71.9,15.36,104.5,31.94
			c16.68,8.25,32.08,18.8,46.86,30.03c6.81,5.12,13,10.96,19.47,16.48c9.65,8.71,18.11,18.59,26.78,28.25
			c11.65,14.29,22.25,29.47,31.39,45.5c23.35,41.26,36.03,88.12,39.03,135.31c0.44,16.27,0.46,32.58-0.91,48.81
			c-2.55,23.97-7.7,47.7-15.75,70.44c-12.92,37.37-33.65,71.91-59.84,101.47c-18.48,20.6-39.19,39.4-62.49,54.42
			c-29.45,19.42-62.35,33.55-96.6,41.92c-16.95,4.32-34.36,6.27-51.7,8.08c-17.53,0.57-35.16,0.99-52.61-0.91
			c-23.62-2.19-46.86-7.76-69.34-15.31c-37.45-12.68-72.24-32.96-102.02-58.91c-15.84-13.11-29.66-28.46-42.2-44.7
			c-30.29-40.17-51.16-87.54-59.56-137.18c-1.87-8.92-2.22-18.08-3.73-27.06c-0.3-15.05-0.19-30.1-0.1-45.14
			c2.25-24.89,5.9-49.91,14.01-73.68c3.46-10.29,7.08-20.55,11.49-30.48c5.83-14.72,13.72-28.51,22.16-41.86
			c9.22-14.72,19.87-28.51,31.48-41.41c11.45-11.86,22.98-23.7,35.97-33.91c37.7-30.34,83.14-50.64,130.52-60.07
			C350.91,105.16,360.51,103.21,370.28,103.01z M398.48,135.19c2.5,7.47,10.57,11.25,13.76,18.34c-13.08-5.4-26.77-9.61-40.81-11.49
			c-5.66-1.3-11.58-0.97-17.23,0.2c-12.74,0.84-25.26,3.64-37.53,7.07c-6.38,1.89-13.03,2.93-19.14,5.65
			c0.48,1.25,0.83,2.93,2.24,3.47c5.12,2.28,10.52,3.92,15.96,5.27c0.15,1.34,0.28,2.69,0.42,4.04c-6.97,0.68-14.09-0.19-20.93,1.68
			c-20.28,2.78-38.73,13.19-53.98,26.48c-8.76,7.99-17.04,16.69-23.15,26.92c-4.7,7.18-8.12,15.09-12.7,22.35
			c-8.35,12.87-18.28,25.35-31.96,32.85c-2.92,1.48-6.01,2.73-8.55,4.86c-0.05,1.66-0.08,3.33-0.04,5c3.49,4.2,9.25,4.89,14.21,6.27
			c6.2,1.8,12.76,1.34,18.96-0.17c-3.38,4.16-7.42,7.72-11.06,11.64c-7.67,8.48-14.82,17.48-20.81,27.24
			c-7.49,12.43-12.9,26.05-16.42,40.12c-2.2,8.59-3.7,17.55-2.43,26.42c0.63,3.98,0.8,8.19,3.04,11.68
			c6.76-3.49,9.88-10.87,14.72-16.37c4.81-5.41,9.01-11.61,15.06-15.74c-2.03,6.18-5.55,11.76-7.95,17.81
			c-7.05,15.06-10.81,31.55-11.52,48.11c-0.08,14.74,3.37,29.49,9.96,42.69c1.9,3.27,3.54,6.94,6.7,9.22
			c4.58-9.55,7.88-19.66,12.9-29.01c1.29-2.04,1.19-5.34,3.7-6.34c-0.34,2.81-0.59,5.63-0.5,8.46c0.18,7.37-1.53,14.61-1.72,21.96
			c-2.83,13.28-4.82,27.37-12.7,38.81c-1.19,1.97-3.71,5.57-0.41,6.85c6.53,0.38,13.12-0.68,19.64,0.35
			c3.68,0.56,7.42,0.14,11.1,0.64c7.63,1.63,15.53,1.69,23.07,3.86c18.21,3.22,35.44,10.17,52.43,17.25
			c7.98,4.03,16.32,7.31,24.19,11.58c35.34,18.62,69.03,40.23,101.56,63.37c16.91,12.35,33.95,24.54,50.06,37.94
			c5.51,3.88,9.99,8.99,15.53,12.84c1.57-1.69,3.13-3.42,4.15-5.5c4.64-9.71,4.16-20.69,4.38-31.18c3.66,5.4,4.68,12.09,8.12,17.6
			c0.78,0.99,2.15,2.93,3.51,1.61c6.38-5.86,8.65-14.66,11.32-22.59c2.85-10.48,4.4-21.6,2.27-32.36
			c-0.58-13.51-5.58-26.36-11.44-38.38c-0.68-1.16-0.9-2.48-1.16-3.75c7.35,5.22,13.41,12.21,17.76,20.11
			c2.19,3.23,3.47,7.48,7.09,9.46c2.35-2.31,3.02-5.58,3.65-8.68c1.17-11.84-0.34-23.77-3.25-35.24
			c-4.78-15.41-10.83-30.58-19.69-44.13c-4.07-6.08-8.52-12.2-14.78-16.19c-1.09-0.81-2.69-1.37-2.62-2.97
			c6.4-2.39,13.1,0.72,19.36,2.17c10.07,3.92,18.57,11.22,25.23,19.63c3.88,4.81,5.41,10.85,7.36,16.59
			c0.67,2.11,2.91,3.02,4.81,3.75c4.66-1.14,7.94-5.02,10.84-8.59c5.98-8.83,9.5-19.38,9.68-30.06c4.42,6.77,2.28,16.75,8.59,22.55
			c3.1,0.52,5.42-1.9,7.15-4.11c4.79-6.34,8.44-13.54,10.77-21.14c1.33-4.26,1.4-8.75,2.41-13.07c0.88-4.74-1.17-9.29-1.1-14.01
			c-0.09-3.23-1.31-6.33-1.18-9.57c5.24-2.62,10.72-5.12,14.71-9.56c8.19-8.01,12.22-19.53,12.07-30.86
			c0.57-5.96,0.05-11.92-0.34-17.87c2.18-3.83,6.24-6.26,8.57-10.04c8.48-10.79,9.28-26.45,3.25-38.57
			c-2.9-6.07-8.12-10.54-13.03-14.96c-12.32-9.24-26.52-15.58-40.65-21.5c-5.75-2.6-12.46-4.02-16.73-9.03
			c-1.55-1.84-3.95-3.42-3.99-6.06c-0.35-8.49-3.33-16.59-6.42-24.41c-6.65-12.21-15.6-24.18-28.89-29.59
			c1.64-0.94,3.35-1.82,5.26-2.03c9.77-1.07,19.75,0.6,28.84,4.28c2.1,0.8,4.24,2.05,6.57,1.36c2.12-9.16-3.55-17.97-9.77-24.19
			c-5.64-6.31-12.95-10.75-20.45-14.49c-7.8-3.66-16.02-6.53-24.6-7.62c-0.33-4.5,0.32-9.16-1.46-13.43
			c-1.83-4.71-3.54-9.49-5.77-14.03c-3.24-6.47-8.62-11.44-13.79-16.35c-14.4-12.87-33.31-19.6-52.18-22.35
			c-6.67-1.5-13.57-0.75-20.35-1.21C406.32,134.63,402.3,134.04,398.48,135.19z"/>
	</g>
	<path class="st1" d="M306.32,234.01c10.15-6.94,23.02-11.09,35.3-8.34c12.57,1.86,24.34,8.62,32.35,18.48
		c3,4.11,5.24,8.94,5.68,14.06c-2.63-1.58-4.1-4.41-6.47-6.29c-9.16-7.21-19.25-14.08-30.94-16.17c-4.94-0.46-9.94-0.55-14.88-0.11
		c-18.25,4.27-31.12,23.78-28.01,42.22c0.54,9.93,5.05,19.81,13.13,25.83c8.26,7.24,18.67,11.06,28.18,16.27
		c-1.86,5.26-5.2,9.79-8.05,14.52c-9.1,15.57-16.09,32.55-19.12,50.37c-0.37,6.65-2.24,13.29-0.85,19.93
		c0.46,14.39,5.87,28.18,13.37,40.32c3.95,6.54,9.76,11.61,15.26,16.81c3.13,2.62,6.42,5.36,10.47,6.38
		c0.43-3.41-1.22-6.57-1.77-9.87c-2.37-11.44-3.73-23.4-1.03-34.91c1.25-8.13,3.66-16.01,5.01-24.12c0.38-0.01,1.16-0.04,1.55-0.06
		c-0.19,10.86-0.35,21.73,0.1,32.59c2.26,12.93,4.05,26.34,10.38,38.06c4.85,8.22,11.12,15.62,18.44,21.76
		c10.95,8.32,23.09,14.95,35.67,20.47c1.25,0.6,2.67,0.38,4.02,0.43c-1.57-6.23-5.84-11.26-8.78-16.86
		c-4.61-7.46-8.1-15.54-10.73-23.89c-2.61-7.67-1.29-15.91-1.63-23.85c5.7,11.48,9.67,23.81,16.05,34.97
		c7.14,13.22,16.24,25.82,19.23,40.83c0.47,1.95,0.52,4.02-0.32,5.89c-3.05-0.5-5.8-1.97-8.65-3.07
		c-18.08-8.03-36.7-15.42-52.88-27.02c-5.07-3.5-9.08-8.3-12.28-13.52c-1.45-2.69-4.31-3.9-6.91-5.17
		c-15.27-6.41-28.84-16.88-38.83-30.11c-6.87-9.89-12.18-20.96-14.86-32.73c-6.15-25.84,2.11-52.36,13.52-75.5
		c3.2-6.8,7.8-12.82,10.8-19.71c-2.62-2.06-6-2.48-8.94-3.88c-6.06-2.87-11.5-6.88-16.62-11.18
		c-11.09-11.14-17.42-27.69-13.91-43.32C291.05,252.88,297.02,241.68,306.32,234.01z"/>
	<path class="st1" d="M501.71,298.34c5.63-4.57,12.85-8.36,20.31-7.06c3.76,0.51,6.43,3.42,8.73,6.18c0.53,1.58,0.24,3.7-1.49,4.4
		c-5.54,2.82-11.81,3.78-17.92,4.45c-5.42,1.04-10.8,2.41-15.87,4.61c-3.48,1.35-6.64,3.46-10.29,4.34
		C489.41,308.51,495.72,303.45,501.71,298.34z"/>
	<path class="st1" d="M518.58,319.93c2.36-1.56,5.25-0.24,7.05,1.56c2.11,6.45,3.64,13.86,0.57,20.28c-1.26,3.66-5.01,6.2-8.88,6.03
		c-2.22,0.35-3.41-1.88-4.43-3.44c-1.59-6.59-1.84-13.72,0.75-20.08C514.42,322.03,516.52,320.82,518.58,319.93z"/>
	<path class="st1" d="M583.04,366.87c7,3.01,14.66,4.86,20.85,9.49c0.54,5.22-1.46,10.46-3.01,15.4c-3.28-0.03-5.65-2.57-7.88-4.64
		C587.43,381.79,584.34,374.36,583.04,366.87z"/>
	<path class="st1" d="M515.16,447.68c2.09-1.11,4.33-3.22,6.85-2.03c9.84,3.3,19.94,5.76,30.2,7.29c7.37,0.68,14.74,1.29,22.13,1.63
		c-1.35,1.11-2.73,2.29-4.41,2.85c-5.41,1.82-10.84,3.91-16.6,4.17c-5.35,0.35-10.63-0.77-15.91-1.42
		C529.41,457.3,520.6,454.7,515.16,447.68z"/>
</g>
<path class="st2" d="M397.47,165.08c3.4-1.02,6.99-0.5,10.47-0.35c6.04,0.41,12.19-0.26,18.14,1.08
	c16.82,2.45,33.67,8.45,46.5,19.92c4.61,4.38,9.4,8.81,12.29,14.57c1.99,4.05,3.51,8.31,5.14,12.5c1.59,3.81,1.01,7.96,1.3,11.97
	c7.65,0.97,14.97,3.53,21.92,6.79c6.68,3.33,13.2,7.29,18.23,12.91c5.54,5.54,10.6,13.39,8.71,21.56c-2.08,0.61-3.98-0.5-5.86-1.21
	c-8.1-3.28-17-4.77-25.7-3.81c-1.7,0.19-3.23,0.97-4.69,1.81c11.84,4.82,19.82,15.49,25.75,26.37c2.75,6.97,5.41,14.19,5.72,21.75
	c0.04,2.35,2.17,3.76,3.56,5.4c3.81,4.46,9.79,5.73,14.91,8.05c12.59,5.28,25.25,10.93,36.23,19.16c4.38,3.94,9.03,7.92,11.61,13.33
	c5.37,10.8,4.66,24.76-2.9,34.37c-2.08,3.37-5.69,5.53-7.64,8.95c0.35,5.3,0.81,10.61,0.3,15.93c0.13,10.1-3.46,20.36-10.76,27.5
	c-3.56,3.96-8.44,6.18-13.11,8.52c-0.12,2.89,0.97,5.65,1.05,8.53c-0.06,4.21,1.76,8.26,0.98,12.49c-0.9,3.85-0.96,7.85-2.15,11.65
	c-2.08,6.77-5.33,13.19-9.6,18.84c-1.54,1.97-3.61,4.13-6.37,3.66c-5.62-5.17-3.72-14.06-7.66-20.1c-0.16,9.52-3.3,18.92-8.63,26.79
	c-2.58,3.18-5.51,6.64-9.66,7.66c-1.69-0.65-3.69-1.46-4.29-3.34c-1.74-5.12-3.1-10.5-6.56-14.79c-5.94-7.49-13.51-14-22.49-17.49
	c-5.58-1.29-11.55-4.06-17.25-1.93c-0.06,1.43,1.36,1.93,2.33,2.65c5.58,3.56,9.54,9.01,13.17,14.43
	c7.9,12.08,13.29,25.6,17.55,39.33c2.59,10.22,3.94,20.85,2.9,31.41c-0.56,2.76-1.16,5.68-3.25,7.74c-3.23-1.76-4.37-5.55-6.32-8.43
	c-3.88-7.04-9.28-13.27-15.83-17.92c0.23,1.13,0.43,2.31,1.03,3.34c5.22,10.71,9.68,22.16,10.2,34.2c1.9,9.59,0.52,19.5-2.02,28.84
	c-2.38,7.07-4.4,14.91-10.09,20.13c-1.21,1.18-2.43-0.55-3.13-1.43c-3.07-4.91-3.97-10.87-7.24-15.69
	c-0.2,9.35,0.23,19.13-3.9,27.79c-0.91,1.85-2.3,3.4-3.7,4.9c-4.94-3.43-8.93-7.99-13.84-11.44
	c-14.36-11.94-29.54-22.81-44.61-33.81c-28.99-20.62-59.02-39.88-90.51-56.48c-7.01-3.81-14.45-6.73-21.56-10.32
	c-15.14-6.31-30.5-12.5-46.73-15.37c-6.72-1.93-13.76-1.99-20.56-3.44c-3.28-0.45-6.61-0.07-9.89-0.57
	c-5.81-0.92-11.68,0.03-17.5-0.31c-2.94-1.14-0.7-4.35,0.37-6.1c7.02-10.2,8.8-22.75,11.32-34.59c0.17-6.55,1.69-13,1.53-19.57
	c-0.08-2.52,0.14-5.04,0.45-7.54c-2.24,0.89-2.15,3.83-3.3,5.65c-4.47,8.33-7.41,17.34-11.5,25.85c-2.82-2.03-4.28-5.3-5.97-8.22
	c-5.87-11.76-8.95-24.91-8.88-38.05c0.63-14.76,3.98-29.45,10.27-42.88c2.14-5.39,5.28-10.36,7.09-15.87
	c-5.39,3.68-9.13,9.21-13.42,14.03c-4.31,4.9-7.09,11.48-13.12,14.59c-2-3.11-2.15-6.86-2.71-10.41c-1.13-7.9,0.2-15.89,2.17-23.55
	c3.14-12.54,7.96-24.68,14.63-35.76c5.34-8.7,11.71-16.72,18.55-24.28c3.24-3.49,6.84-6.67,9.86-10.37
	c-5.53,1.35-11.37,1.76-16.9,0.15c-4.42-1.23-9.55-1.84-12.66-5.59c-0.04-1.49-0.01-2.98,0.04-4.46c2.26-1.9,5.02-3.01,7.62-4.33
	c12.19-6.68,21.04-17.81,28.48-29.28c4.08-6.47,7.13-13.52,11.32-19.92c5.45-9.12,12.82-16.87,20.63-23.99
	c13.59-11.84,30.03-21.12,48.11-23.6c6.1-1.67,12.44-0.89,18.65-1.5c-0.12-1.2-0.24-2.41-0.37-3.6c-4.85-1.2-9.66-2.66-14.22-4.7
	c-1.26-0.48-1.57-1.98-2-3.09c5.45-2.42,11.37-3.35,17.06-5.04c10.94-3.06,22.09-5.55,33.45-6.3c5.04-1.04,10.31-1.34,15.36-0.18
	c12.51,1.68,24.71,5.43,36.37,10.24C406.89,175.11,399.7,171.74,397.47,165.08z M315.34,253.15c-8.29,6.84-13.61,16.82-16,27.19
	c-3.13,13.93,2.51,28.68,12.4,38.61c4.56,3.83,9.41,7.41,14.81,9.96c2.62,1.25,5.63,1.62,7.97,3.46
	c-2.67,6.14-6.77,11.51-9.62,17.57c-10.17,20.62-17.53,44.26-12.05,67.29c2.39,10.49,7.12,20.36,13.24,29.17
	c8.9,11.79,21,21.12,34.61,26.83c2.32,1.13,4.87,2.21,6.16,4.61c2.85,4.65,6.43,8.93,10.94,12.05
	c14.42,10.34,31.01,16.92,47.13,24.08c2.54,0.98,4.99,2.29,7.71,2.74c0.75-1.67,0.7-3.51,0.29-5.25
	c-2.66-13.38-10.77-24.61-17.14-36.39c-5.69-9.95-9.22-20.93-14.3-31.17c0.3,7.08-0.87,14.42,1.45,21.26
	c2.34,7.44,5.45,14.64,9.56,21.29c2.62,4.99,6.43,9.47,7.82,15.03c-1.2-0.04-2.47,0.15-3.58-0.38
	c-11.21-4.92-22.03-10.83-31.79-18.24c-6.52-5.47-12.11-12.07-16.43-19.39c-5.64-10.44-7.24-22.4-9.25-33.92
	c-0.4-9.68-0.26-19.37-0.09-29.04c-0.35,0.02-1.04,0.04-1.38,0.05c-1.2,7.23-3.35,14.25-4.46,21.5
	c-2.41,10.26-1.19,20.92,0.92,31.11c0.49,2.94,1.96,5.76,1.58,8.8c-3.61-0.91-6.54-3.35-9.33-5.69c-4.9-4.63-10.08-9.15-13.6-14.98
	c-6.68-10.82-11.51-23.11-11.92-35.93c-1.24-5.92,0.43-11.84,0.76-17.76c2.7-15.88,8.93-31.01,17.04-44.89
	c2.54-4.22,5.52-8.25,7.17-12.94c-8.48-4.64-17.75-8.05-25.11-14.5c-7.2-5.37-11.22-14.17-11.7-23.02
	c-2.77-16.43,8.7-33.82,24.96-37.63c4.4-0.39,8.86-0.31,13.26,0.1c10.42,1.86,19.41,7.99,27.57,14.41c2.11,1.68,3.42,4.2,5.77,5.61
	c-0.39-4.56-2.39-8.87-5.06-12.53c-7.14-8.79-17.63-14.81-28.83-16.47C335.86,243.27,324.39,246.97,315.34,253.15z M489.47,310.48
	c-5.34,4.55-10.96,9.06-14.73,15.08c3.25-0.78,6.07-2.66,9.17-3.87c4.52-1.96,9.31-3.18,14.14-4.11c5.45-0.6,11.03-1.45,15.97-3.97
	c1.54-0.62,1.8-2.51,1.33-3.92c-2.05-2.46-4.43-5.05-7.78-5.51C500.92,303.03,494.49,306.41,489.47,310.48z M504.51,329.72
	c-1.84,0.79-3.71,1.87-4.4,3.88c-2.31,5.67-2.09,12.02-0.67,17.9c0.91,1.39,1.97,3.38,3.95,3.07c3.45,0.15,6.79-2.11,7.91-5.37
	c2.74-5.72,1.37-12.33-0.51-18.07C509.19,329.51,506.61,328.33,504.51,329.72z M561.95,371.56c1.16,6.68,3.91,13.3,8.88,18.05
	c1.99,1.84,4.1,4.11,7.02,4.14c1.38-4.4,3.16-9.07,2.68-13.72C575.02,375.89,568.19,374.24,561.95,371.56z M501.46,443.57
	c4.85,6.26,12.7,8.57,19.84,11.13c4.71,0.58,9.41,1.58,14.18,1.27c5.13-0.23,9.97-2.09,14.79-3.72c1.5-0.5,2.73-1.55,3.93-2.54
	c-6.59-0.3-13.15-0.85-19.72-1.45c-9.14-1.36-18.14-3.56-26.91-6.5C505.32,440.7,503.32,442.58,501.46,443.57z M229.09,512.68
	c-3.73,1.87-7.84,3.07-11.1,5.74c22.43-0.56,44.44,5.17,65.52,12.33c10.03,3.91,19.79,8.52,29.4,13.39
	c5.12,2.54,10.36,4.91,15.26,7.89c7.65,4.75,15.84,8.53,23.67,12.94c4.35,2.5,8.5,5.38,13.07,7.5c6.78,4.81,13.68,9.49,20.73,13.91
	c6.97,3.84,12.86,9.29,19.76,13.26c14.01,10.01,27.9,20.19,41.64,30.58c5.89,4.26,11.15,9.35,17.19,13.39
	c4.15-5.5,1.73-12.8,0.79-18.96c-0.38-5.7-3.12-10.79-5.49-15.86c-1.6-3.35-3.52-6.53-5.68-9.54
	c-10.58-15.04-24.17-27.91-39.55-37.96c-7.82-5.5-15.79-10.79-23.5-16.42c-0.28,0.06-0.84,0.18-1.11,0.23
	c-6.82-4.17-14.16-7.38-21.28-10.97c-12.26-6.15-25.2-10.74-38.11-15.31c-6.19-1.71-12.28-3.74-18.42-5.6
	c-12.25-2.79-24.62-5.2-37.13-6.53C259.39,505.06,243.22,505.96,229.09,512.68z"/>
<g>
	<path class="st3" d="M209.54,525.22c15.86-7.54,34-8.55,51.23-6.72c14.03,1.49,27.91,4.2,41.66,7.33
		c6.89,2.08,13.72,4.36,20.67,6.28c14.48,5.13,29,10.28,42.76,17.18c7.99,4.03,16.23,7.63,23.88,12.31
		c-4.44,5.47-9.63,10.26-14.3,15.52c-4.44,5.12-10.23,9.1-13.5,15.18c-5.13-2.38-9.79-5.61-14.67-8.42
		c-8.79-4.95-17.98-9.19-26.56-14.52c-5.5-3.34-11.37-6-17.12-8.85c-10.78-5.46-21.73-10.63-32.99-15.02
		c-23.66-8.03-48.35-14.46-73.52-13.83C200.74,528.66,205.36,527.32,209.54,525.22z"/>
</g>
<g>
	<path class="st4" d="M389.74,561.6c0.31-0.06,0.94-0.19,1.25-0.26c8.65,6.32,17.6,12.26,26.37,18.43
		c17.26,11.27,32.51,25.71,44.38,42.59c2.42,3.37,4.57,6.94,6.37,10.7c2.66,5.69,5.73,11.4,6.16,17.8
		c1.05,6.91,3.77,15.1-0.89,21.27c-6.78-4.54-12.68-10.25-19.29-15.03c-15.41-11.66-31-23.08-46.72-34.31
		c-7.74-4.46-14.35-10.57-22.17-14.88c-7.91-4.96-15.65-10.21-23.26-15.61c3.27-6.08,9.06-10.06,13.5-15.18
		C380.11,571.86,385.3,567.07,389.74,561.6z"/>
</g>
<path class="st2" d="M378.75,6.31c15.2-0.28,30.53-0.91,45.63,1.27c6.7,0.12,13.43,0.16,20.03,1.59
	c25.35,1.92,50.36,7.17,74.6,14.88c54.98,17.33,106.83,45.41,150.2,83.5c15.54,15.6,32.38,30.16,45.33,48.11
	c16.08,19.5,29.76,40.9,41.37,63.34c16.78,30.94,28.84,64.36,36.62,98.66c5.03,20.4,7.28,41.36,9.13,62.22
	c1.66,14.61,0.79,29.45,0.58,44.14c-1.4,7.75-1.11,15.64-1.53,23.47c-1.49,7.38-1.12,15.02-2.89,22.35
	c-10.97,81.57-49.74,158.49-106.21,218.06c-33.92,35.86-74.67,65.08-119.17,86.38c-22.51,10.53-45.6,20.25-69.87,25.91
	c-19.85,5.28-40.21,8.18-60.5,11.11c-7.58,1.4-15.4-0.09-22.93,1.85c-11.05,0.86-22.17,0.64-33.24,0.52
	c-7.43-0.06-14.7-1.97-22.14-1.65c-52.01-4.71-103.38-18.71-150.04-42.39c-62.23-32.38-116.55-80.29-154.9-139.16
	C22,574.1-0.63,508.42-5.42,441.27c-2.47-15.46-1.23-31.15-1.53-46.73c3.1-62.9,19.49-125.49,49.75-180.91
	c8.17-13.8,15.91-27.92,25.53-40.8c26.76-38.22,60.47-71.48,98.88-97.97c19.92-14.17,41.76-25.38,64.05-35.29
	C268,23.77,307.02,13.29,346.73,8.82C357.32,7.14,368.13,7.87,378.75,6.31z M356.46,33c-12.02,0.25-23.83,2.64-35.72,4.21
	c-58.29,11.6-114.18,36.57-160.56,73.9c-15.98,12.56-30.16,27.13-44.25,41.71c-14.28,15.87-27.38,32.83-38.73,50.94
	c-10.38,16.42-20.09,33.39-27.26,51.49c-5.43,12.22-9.88,24.84-14.13,37.5c-9.98,29.24-14.47,60.02-17.23,90.64
	c-0.11,18.5-0.25,37.02,0.12,55.53c1.86,11.05,2.29,22.32,4.59,33.29c10.33,61.07,36.01,119.34,73.27,168.75
	c15.43,19.98,32.43,38.86,51.91,54.99c36.63,31.92,79.43,56.87,125.5,72.47c27.65,9.29,56.24,16.14,85.3,18.83
	c21.47,2.34,43.15,1.82,64.72,1.12c21.33-2.23,42.75-4.63,63.6-9.94c42.13-10.3,82.61-27.68,118.83-51.57
	c28.66-18.48,54.14-41.6,76.87-66.95c32.22-36.36,57.72-78.85,73.61-124.82c9.9-27.97,16.24-57.17,19.38-86.65
	c1.69-19.97,1.66-40.03,1.12-60.04c-3.69-58.05-19.29-115.7-48.01-166.45c-11.24-19.72-24.28-38.39-38.61-55.97
	c-10.67-11.88-21.07-24.04-32.94-34.75c-7.96-6.79-15.57-13.97-23.95-20.27C615.69,97.13,596.75,84.15,576.23,74
	c-40.1-20.4-83.66-34.92-128.55-39.29c0.49-0.37,0.98-0.75,1.5-1.13c-4.29,0-8.57-0.14-12.84-0.52
	c-15.86-2.47-31.96-1.93-47.95-2.18C377.72,31.01,367,31.27,356.46,33z"/>
<path id="SVGID_x5F_1_x5F_" class="st5" d="M693.29,374.97c0,163.03-132.17,295.2-295.2,295.2s-295.2-132.17-295.2-295.2
	s132.17-295.2,295.2-295.2S693.29,211.94,693.29,374.97z"/>
<text><textPath  xlink:href="#SVGID_x5F_1_x5F_" startOffset="10075.127%">
<tspan  class="st2" style="font-family:'AvenirNext-Medium'; font-size:86.8235px; letter-spacing:-18;">TeX USERS GROUP</tspan></textPath>
</text>
<path id="SVGID_x5F_2_x5F_" class="st5" d="M757.83,366.87c0-198.82-161.18-360-360-360s-360,161.18-360,360s161.18,360,360,360
	S757.83,565.69,757.83,366.87z"/>
<text><textPath  xlink:href="#SVGID_x5F_2_x5F_" startOffset="2754.9561%">
<tspan  class="st2" style="font-family:'AvenirNext-Medium'; font-size:86.82px; letter-spacing:-18;">PORTUGAL</tspan></textPath>
</text>
</svg>
